<svg width="218" height="218" viewBox="0 0 218 218" fill="none" xmlns="http://www.w3.org/2000/svg">
<path d="M92.4969 175.434C123.365 163.89 155.131 152.011 199.322 159.01C203.166 159.618 205.473 163.555 204.266 167.256L193.788 199.389C190.116 210.809 183.716 217.308 176.267 217.308H29.2361C21.0531 217.308 14.4432 210.345 11.5056 198.739C10.3671 194.237 14.3547 190.053 18.9773 190.497C22.1682 190.803 25.3081 190.94 28.3963 190.94C50.952 190.94 71.3049 183.326 92.4969 175.434ZM80.8201 1.10237C84.3069 -1.04499 88.8747 0.0404573 91.0222 3.52718C92.8189 6.44412 94.4617 10.4207 95.9705 15.0614C112.773 13.5291 127.742 11.1031 141.093 10.953C168.568 10.6441 170.555 64.4425 173.827 89.2655C174.447 93.9658 169.671 99.5941 164.944 99.2225C149.84 98.0346 132.293 98.1898 109.558 103.36C110.042 112.163 110.254 120.686 110.132 128.5C138.741 118.773 171.684 111.268 215.082 121.691C217.183 122.148 218.286 126.166 217.288 129.454L212.758 143.13C211.028 148.349 205.663 151.406 200.229 150.566C154.986 143.572 121.473 155.87 91.6863 166.809C66.0395 176.237 41.6647 185.191 13.281 180.67C9.27732 180.032 6.16367 176.945 5.15604 173.018L0.282989 154.022C-0.714874 150.278 1.07054 146.351 3.38162 146.898C15.3622 149.938 38.0129 152.015 50.199 147.99C50.7215 147.817 51.2461 147.667 51.7849 147.555C65.5774 144.697 78.9794 139.768 92.6844 134.752C93.5028 134.45 94.325 134.15 95.1492 133.847C95.4724 125.887 95.367 116.796 94.907 107.202C82.7679 110.789 69.2698 115.738 54.0984 122.472C49.6154 124.462 44.4532 121.993 44.6541 117.094C45.1044 106.11 49.2559 93.3619 43.3377 74.7821C37.3605 56.0172 24.8755 33.7218 16.3601 19.5516C11.9963 12.2898 15.3379 8.15917 23.533 10.3143C44.4453 15.8137 63.412 16.8024 80.6248 16.1014C79.8367 14.0372 79.0886 12.4301 78.3953 11.3045C76.2476 7.81768 77.3333 3.25004 80.8201 1.10237Z" fill="#202020"/>
</svg>
